<svg id="Capa_1" enable-background="new 0 0 511 511" height="512" viewBox="0 0 511 511" width="512" xmlns="http://www.w3.org/2000/svg"><g><path d="m473 111.5v-50.5h-40v-31h-30v-30h-47.5v15h32.5v165h-92.5c-12.564 0-23.996 4.912-32.5 12.906v-145.406c0-17.921 14.579-32.5 32.5-32.5h43v-15h-43c-16.782 0-31.548 8.756-40 21.932-8.452-13.176-23.218-21.932-40-21.932h-107.5v30h-30v31h-40v127.5h15v-112.5h25v175h-25v-45.5h-15v100.5h195v137.5c0 6.893-5.607 12.5-12.5 12.5h-25c-20.678 0-37.5 16.822-37.5 37.5v17.5h49.071v-15h-34.071v-2.5c0-12.406 10.093-22.5 22.5-22.5h25c15.164 0 27.5-12.337 27.5-27.5v-137.5h15v137.5c0 15.163 12.337 27.5 27.5 27.5h25c12.406 0 22.5 10.094 22.5 22.5v2.5h-113.929v15h128.929v-17.5c0-20.678-16.822-37.5-37.5-37.5h-25c-6.893 0-12.5-5.607-12.5-12.5v-137.5h195v-177.5h-15v122.5h-25v-175h25v35.5zm-177.5 83.5h92.5v25h-124.117c3.396-14.315 16.278-25 31.617-25zm-172.5-180h92.5c17.92 0 32.5 14.579 32.5 32.5v145.406c-8.504-7.994-19.936-12.906-32.5-12.906h-92.5zm0 180h92.5c15.339 0 28.221 10.685 31.617 25h-124.117zm335 71v25h-405v-25h145.5v-15h-105.5v-206h15v190h295v-190h15v206h-202.5v15z"/><path d="m145.5 62h80v15h-80z"/><path d="m145.5 122h34v15h-34z"/><path d="m285.5 62h80v15h-80z"/><path d="m145.5 93h80v15h-80z"/><path d="m285.5 93h80v15h-80z"/><path d="m285.5 122h33v15h-33z"/><path d="m192 393h-7.5c-12.407 0-22.5 10.094-22.5 22.5s10.093 22.5 22.5 22.5 22.5-10.094 22.5-22.5v-90.318l-79 17.281v64.537h-7.5c-12.407 0-22.5 10.094-22.5 22.5s10.093 22.5 22.5 22.5 22.5-10.094 22.5-22.5v-44.963l49-10.719zm0 22.5c0 4.136-3.364 7.5-7.5 7.5s-7.5-3.364-7.5-7.5 3.364-7.5 7.5-7.5h7.5zm-64 14c0 4.136-3.364 7.5-7.5 7.5s-7.5-3.364-7.5-7.5 3.364-7.5 7.5-7.5h7.5zm15-60.318v-14.645l49-10.719v14.645z"/><path d="m340.676 391.667-7.091-2.443c-5.681-1.959-11.786-1.587-17.188 1.048-5.402 2.633-9.456 7.212-11.414 12.895-4.041 11.729 2.214 24.561 13.943 28.603 2.419.834 4.884 1.229 7.31 1.229 9.337 0 18.084-5.861 21.293-15.171l19.279-55.953 18.462 17.963 10.461-10.752-35.403-34.445zm-7.329 21.272c-1.347 3.909-5.627 5.991-9.534 4.647h-.001c-3.909-1.348-5.994-5.625-4.647-9.534 1.069-3.104 3.984-5.058 7.098-5.058.809 0 1.63.132 2.437.41l7.091 2.443z"/><path d="m432.734 428.41-7.292 1.751c-12.063 2.897-19.521 15.068-16.626 27.132 2.476 10.306 11.717 17.249 21.878 17.249 1.734 0 3.496-.202 5.254-.624 5.844-1.403 10.792-4.998 13.932-10.123 3.141-5.124 4.097-11.165 2.693-17.008l-5.253-21.879-8.564-35.667 25.224 5.223 3.041-14.688-48.368-10.018zm5.253 21.88c.468 1.947.149 3.961-.897 5.668-1.046 1.709-2.695 2.906-4.644 3.374-1.947.467-3.962.149-5.67-.897s-2.906-2.695-3.374-4.644c-.966-4.021 1.521-8.078 5.542-9.044l7.292-1.751z"/><path d="m63 329h15v15h-15z"/><path d="m63 379h15v15h-15z"/><path d="m88 354h15v15h-15z"/><path d="m38 354h15v15h-15z"/><path d="m194.5 122h15v15h-15z"/><path d="m334.5 122h15v15h-15z"/></g></svg>